<svg width="22" height="22" viewBox="0 0 22 22" fill="none" xmlns="http://www.w3.org/2000/svg">
<path fill-rule="evenodd" clip-rule="evenodd" d="M12.7576 0.803641C11.7113 -0.267881 9.98805 -0.26788 8.94175 0.803642L8.15744 1.60686C7.64794 2.12865 6.94697 2.419 6.21774 2.41031L5.09518 2.39694C3.59766 2.37911 2.37911 3.59766 2.39694 5.09518L2.41031 6.21774C2.419 6.94697 2.12865 7.64794 1.60686 8.15744L0.803641 8.94175C-0.267881 9.98805 -0.26788 11.7113 0.803642 12.7576L1.60686 13.542C2.12865 14.0515 2.419 14.7524 2.41031 15.4817L2.39694 16.6042C2.37911 18.1017 3.59766 19.3203 5.09518 19.3025L6.21774 19.2891C6.94697 19.2804 7.64794 19.5707 8.15744 20.0925L8.94175 20.8958C9.98805 21.9673 11.7113 21.9673 12.7576 20.8958L13.542 20.0925C14.0515 19.5707 14.7524 19.2804 15.4817 19.2891L16.6042 19.3025C18.1017 19.3203 19.3203 18.1017 19.3025 16.6042L19.2891 15.4817C19.2804 14.7524 19.5707 14.0515 20.0925 13.542L20.8958 12.7576C21.9673 11.7113 21.9673 9.98805 20.8958 8.94175L20.0925 8.15744C19.5707 7.64794 19.2804 6.94697 19.2891 6.21774L19.3025 5.09518C19.3203 3.59766 18.1017 2.37911 16.6042 2.39694L15.4817 2.41031C14.7524 2.419 14.0515 2.12865 13.542 1.60686L12.7576 0.803641ZM15.7921 7.24065C15.2714 6.71995 14.428 6.71995 13.9073 7.24065L9.51571 11.6303L7.79208 9.90666C7.27146 9.3864 6.42793 9.3864 5.90731 9.90666C5.38662 10.4274 5.38662 11.2717 5.90731 11.7924L8.10263 13.9877C8.88369 14.7686 10.1498 14.7687 10.9308 13.9877L15.7921 9.12541C16.3128 8.60471 16.3128 7.76135 15.7921 7.24065Z" fill="url(#paint0_linear_3755_6327)"/>
<defs>
<linearGradient id="paint0_linear_3755_6327" x1="2.84967" y1="5.34967" x2="17.3497" y2="17.8497" gradientUnits="userSpaceOnUse">
<stop stop-color="#FCD90F"/>
<stop offset="1" stop-color="#FA9600"/>
</linearGradient>
</defs>
</svg>
